<?xml version="1.0" encoding="utf-8"?>
<!-- Generator: Adobe Illustrator 27.5.0, SVG Export Plug-In . SVG Version: 6.00 Build 0)  -->
<svg version="1.1" id="Capa_1" xmlns="http://www.w3.org/2000/svg" xmlns:xlink="http://www.w3.org/1999/xlink" x="0px" y="0px"
	 viewBox="0 0 2122 2122" style="enable-background:new 0 0 2122 2122;" xml:space="preserve">
<path style="fill:#C39572;" d="M1180.397,240.004c0-19.229-15.588-34.817-34.816-34.817h-169.84
	c-19.229,0-34.818,15.588-34.818,34.817v191.998h239.474V240.004z M1060.66,390.312c-34.002,0-61.567-27.564-61.567-61.567
	c0-34.002,27.564-61.567,61.567-61.567c34.003,0,61.567,27.564,61.567,61.567C1122.227,362.747,1094.663,390.312,1060.66,390.312z"
	/>
<path style="fill:#B5B89E;" d="M896.051,576.164h372.238v-92.453c0-28.558-23.151-51.708-51.708-51.708h-36.183H940.923H904.74
	c-1.059,0-2.094,0.096-3.137,0.158c-1.032,16.071-1.998,32.146-2.839,48.228C897.089,512.404,896.249,544.315,896.051,576.164z"/>
<path style="fill:#C39572;" d="M896.051,576.18c-0.182,29.156,0.207,58.257,1.084,87.33l0.003,0.104
	c0.338,11.23,0.811,22.453,1.291,33.676h369.859V576.164H896.051V576.18z"/>
<path style="fill:#B5B89E;" d="M1310.324,697.289h-42.035H898.429c0.101,2.374,0.166,4.75,0.272,7.123
	c0.112,2.452,0.235,4.902,0.353,7.353c0.567,11.835,1.2,23.668,1.908,35.5c0.097,1.614,0.18,3.229,0.279,4.844
	c0.783,12.749,1.659,25.498,2.591,38.249c0.232,3.188,0.475,6.376,0.716,9.565c0.891,11.745,1.826,23.491,2.828,35.241
	c0.105,1.227,0.199,2.452,0.304,3.679c1.106,12.821,2.29,25.649,3.513,38.482c0.301,3.154,0.606,6.309,0.914,9.463
	c1.252,12.855,2.537,25.714,3.891,38.587c1.064,10.123,2.167,20.244,3.294,30.365c0.32,2.874,0.652,5.747,0.978,8.621
	c0.859,7.581,1.736,15.16,2.637,22.737c0.349,2.939,0.7,5.878,1.056,8.817c1.036,8.557,2.101,17.111,3.197,25.662
	c0.208,1.627,0.409,3.254,0.62,4.881c0.886,6.836,1.825,13.664,2.753,20.494c38.059-22.764,82.555-35.878,130.128-35.878
	c140.231,0,253.91,113.68,253.91,253.91c0,2.706-0.12,5.382-0.204,8.067h78.754l0-492.966
	C1393.121,734.359,1356.052,697.289,1310.324,697.289z"/>
<path style="fill:#C39572;" d="M1393.12,1829.693v-556.641h-78.754c-4.27,136.488-116.181,245.843-253.706,245.843
	c-4.717,0-9.397-0.152-14.051-0.406c4.108,10.208,8.307,20.378,12.675,30.474c26.889,62.161,58.446,122.213,92.132,180.933
	c35.881,62.543,71.632,126.227,116.857,182.594h42.05c2.858,0,5.682-0.145,8.465-0.427
	C1360.54,1907.822,1393.12,1872.563,1393.12,1829.693z"/>
<path style="fill:#704A38;" d="M1060.66,267.179c-34.002,0-61.567,27.564-61.567,61.567c0,34.002,27.564,61.567,61.567,61.567
	c34.003,0,61.567-27.564,61.567-61.567C1122.227,294.743,1094.663,267.179,1060.66,267.179z M1060.66,352.186
	c-12.946,0-23.441-10.494-23.441-23.44c0-12.946,10.495-23.441,23.441-23.441c12.946,0,23.441,10.495,23.441,23.441
	C1084.101,341.691,1073.606,352.186,1060.66,352.186z"/>
<path style="fill:#3F2014;" d="M1060.66,305.304c-12.946,0-23.441,10.495-23.441,23.441c0,12.946,10.495,23.44,23.441,23.44
	c12.946,0,23.441-10.494,23.441-23.44C1084.101,315.799,1073.606,305.304,1060.66,305.304z"/>
<path style="fill:#989D7D;" d="M896.051,576.18v-0.016c0.198-31.849,1.038-63.759,2.713-95.775
	c0.842-16.083,1.807-32.158,2.839-48.228l-0.003,0c-3.381,0.204-6.675,0.731-9.851,1.552l-0.021,0.005
	c-1.568,0.406-3.105,0.886-4.611,1.43l-0.116,0.043c-1.47,0.536-2.909,1.139-4.313,1.801l-0.232,0.111
	c-1.358,0.649-2.681,1.355-3.971,2.115l-0.375,0.228c-1.229,0.739-2.426,1.527-3.586,2.362l-0.529,0.395
	c-1.09,0.806-2.15,1.65-3.172,2.537l-0.681,0.619c-0.946,0.851-1.868,1.729-2.749,2.648l-0.793,0.873
	c-0.804,0.877-1.591,1.771-2.333,2.702l-0.883,1.18c-0.661,0.879-1.314,1.766-1.918,2.688c-0.325,0.495-0.615,1.012-0.923,1.519
	c-0.526,0.866-1.054,1.731-1.531,2.63c-0.321,0.608-0.599,1.241-0.898,1.863c-0.403,0.842-0.818,1.676-1.176,2.543
	c-0.302,0.728-0.546,1.482-0.815,2.227c-0.288,0.801-0.599,1.592-0.849,2.411c-0.264,0.866-0.461,1.759-0.679,2.643
	c-0.183,0.735-0.396,1.457-0.546,2.205c-0.214,1.063-0.347,2.153-0.494,3.238c-0.082,0.6-0.204,1.187-0.264,1.794
	c-0.17,1.707-0.262,3.437-0.262,5.19v92.453h43.019V576.18z"/>
<path style="fill:#B2774E;" d="M898.702,704.413c-0.107-2.374-0.171-4.749-0.272-7.123c-0.48-11.223-0.953-22.446-1.291-33.676
	l-0.003-0.104c-0.877-29.073-1.266-58.174-1.084-87.33v-0.016h-43.019v121.126h45.329
	C898.463,699.664,898.595,702.039,898.702,704.413z"/>
<path style="fill:#989D7D;" d="M806.751,1264.985c0-3.898,0.12-7.767,0.293-11.622c0.043-0.948,0.09-1.894,0.143-2.839
	c0.215-3.82,0.485-7.625,0.867-11.397l0.064-0.545c0.374-3.616,0.845-7.203,1.368-10.772c0.139-0.946,0.28-1.891,0.43-2.834
	c0.581-3.668,1.216-7.317,1.952-10.931l0.248-1.128c0.686-3.289,1.448-6.549,2.259-9.789c0.245-0.98,0.492-1.959,0.748-2.934
	c0.914-3.469,1.878-6.917,2.933-10.327c0.18-0.583,0.382-1.155,0.566-1.736c0.93-2.932,1.918-5.839,2.952-8.724
	c0.366-1.023,0.731-2.044,1.11-3.061c1.208-3.24,2.464-6.457,3.799-9.633c0.328-0.781,0.683-1.548,1.019-2.325
	c1.104-2.554,2.25-5.085,3.434-7.595c0.51-1.082,1.019-2.164,1.544-3.237c1.461-2.984,2.964-5.942,4.538-8.859
	c0.514-0.955,1.058-1.89,1.584-2.838c1.211-2.177,2.45-4.334,3.721-6.471c0.683-1.147,1.363-2.294,2.063-3.43
	c1.671-2.709,3.38-5.391,5.149-8.032c0.729-1.09,1.491-2.156,2.236-3.233c1.258-1.817,2.536-3.618,3.84-5.4
	c0.878-1.199,1.752-2.399,2.65-3.583c1.842-2.428,3.72-4.826,5.647-7.185c0.965-1.182,1.962-2.337,2.948-3.501
	c1.261-1.489,2.536-2.964,3.831-4.423c1.083-1.221,2.163-2.442,3.269-3.642c1.992-2.161,4.017-4.29,6.083-6.38
	c1.182-1.197,2.394-2.363,3.6-3.536c1.265-1.23,2.541-2.448,3.831-3.653c1.278-1.193,2.552-2.387,3.854-3.554
	c2.127-1.905,4.284-3.776,6.475-5.609c1.383-1.158,2.795-2.282,4.203-3.411c1.273-1.02,2.555-2.028,3.848-3.024
	c1.452-1.119,2.899-2.24,4.375-3.328c2.264-1.668,4.558-3.298,6.88-4.892c1.536-1.056,3.097-2.076,4.659-3.098
	c1.322-0.866,2.653-1.718,3.991-2.559c1.578-0.992,3.151-1.988,4.751-2.946l0.002-0.001c-0.927-6.833-1.846-13.667-2.732-20.507
	c-0.211-1.626-0.411-3.254-0.62-4.881c-1.095-8.55-2.161-17.104-3.197-25.662c-0.356-2.939-0.706-5.878-1.056-8.817
	c-0.899-7.577-1.779-15.156-2.637-22.737c-0.326-2.874-0.658-5.747-0.978-8.621c-1.126-10.12-2.23-20.242-3.294-30.365
	c-1.354-12.873-2.639-25.732-3.891-38.587c-0.308-3.154-0.613-6.31-0.914-9.463c-1.223-12.833-2.407-25.661-3.513-38.482
	c-0.105-1.226-0.2-2.452-0.304-3.679c-1.002-11.75-1.937-23.497-2.828-35.241c-0.242-3.188-0.484-6.377-0.716-9.565
	c-0.932-12.751-1.807-25.5-2.591-38.249c-0.099-1.615-0.182-3.23-0.279-4.844c-0.709-11.832-1.34-23.666-1.908-35.5
	c-0.118-2.451-0.241-4.901-0.353-7.353c-0.107-2.374-0.238-4.749-0.341-7.123h-45.329h-42.036
	c-45.727,0-82.797,37.069-82.797,82.796v492.966h78.748C806.864,1270.368,806.751,1267.69,806.751,1264.985z"/>
<path style="fill:#B2774E;" d="M810.995,1912.49L810.995,1912.49h457.278c-45.225-56.366-80.976-120.051-116.857-182.594
	c-33.687-58.719-65.244-118.771-92.132-180.933c-4.368-10.097-8.567-20.267-12.675-30.474c-20.539-1.12-40.418-4.701-59.372-10.419
	l-1.062-0.302c-3.113-0.954-6.184-2.003-9.245-3.072c-0.786-0.274-1.584-0.519-2.365-0.801c-2.796-1.008-5.549-2.102-8.299-3.204
	c-1.02-0.409-2.054-0.788-3.067-1.209c-2.566-1.068-5.089-2.214-7.612-3.363c-1.161-0.528-2.336-1.031-3.488-1.576
	c-2.392-1.134-4.743-2.337-7.093-3.542c-1.238-0.635-2.489-1.248-3.715-1.903c-2.246-1.198-4.451-2.459-6.655-3.723
	c-1.288-0.737-2.585-1.459-3.857-2.218c-2.117-1.263-4.195-2.581-6.272-3.903c-1.311-0.835-2.628-1.657-3.923-2.515
	c-1.996-1.323-3.955-2.694-5.911-4.071c-1.325-0.933-2.655-1.859-3.961-2.817c-1.882-1.38-3.73-2.802-5.573-4.232
	c-1.322-1.026-2.644-2.049-3.945-3.1c-1.777-1.437-3.523-2.909-5.259-4.392c-1.309-1.116-2.614-2.234-3.899-3.377
	c-1.675-1.49-3.321-3.009-4.956-4.542c-1.286-1.205-2.565-2.416-3.825-3.647c-1.575-1.539-3.123-3.102-4.658-4.681
	c-1.256-1.292-2.502-2.593-3.73-3.912c-1.477-1.586-2.931-3.191-4.367-4.814c-1.219-1.377-2.423-2.766-3.613-4.171
	c-1.38-1.628-2.74-3.273-4.079-4.936c-1.176-1.46-2.331-2.935-3.474-4.421c-1.285-1.669-2.552-3.349-3.796-5.05
	c-1.129-1.545-2.233-3.108-3.327-4.679c-1.184-1.7-2.355-3.407-3.499-5.136c-1.078-1.632-2.125-3.283-3.167-4.941
	c-1.087-1.73-2.166-3.463-3.211-5.22c-1.017-1.709-1.998-3.44-2.975-5.174c-0.994-1.763-1.984-3.526-2.937-5.315
	c-0.948-1.782-1.855-3.588-2.763-5.395c-0.898-1.79-1.799-3.577-2.656-5.391c-0.88-1.859-1.71-3.744-2.545-5.629
	c-0.803-1.813-1.613-3.62-2.374-5.455c-0.803-1.933-1.552-3.894-2.307-5.852c-0.706-1.829-1.426-3.651-2.091-5.501
	c-0.724-2.014-1.388-4.056-2.062-6.093c-0.608-1.839-1.235-3.667-1.803-5.524c-0.638-2.09-1.209-4.209-1.795-6.323
	c-0.512-1.844-1.048-3.678-1.519-5.539c-0.552-2.186-1.028-4.4-1.524-6.608c-0.41-1.825-0.851-3.638-1.221-5.478
	c-0.464-2.305-0.844-4.639-1.244-6.966c-0.306-1.779-0.651-3.544-0.92-5.335c-0.371-2.468-0.649-4.964-0.947-7.453
	c-0.203-1.685-0.451-3.356-0.62-5.052c-0.277-2.775-0.451-5.58-0.638-8.38c-0.096-1.438-0.244-2.861-0.316-4.305
	c-0.079-1.584-0.078-3.189-0.128-4.781h-78.748h0v556.641C728.199,1875.421,765.268,1912.49,810.995,1912.49z"/>
<path style="fill:#FDE3CF;" d="M1060.66,1011.075c-47.572,0-92.069,13.114-130.128,35.878l-0.022,0.013
	c11.433,84.217,26.214,167.949,46.934,250.375c23.211,27.105,25.466,64.275,20.565,69.175c-0.324,0.324-0.848,0.607-1.496,0.86l0,0
	c3.37,11.593,6.793,23.17,10.308,34.717c-7.355-24.165,5.663,19.095,7.915,26.477c1.776,5.822,3.586,11.634,5.458,17.426
	c7.912,24.479,16.811,48.629,26.414,72.494c4.654,0.254,9.334,0.406,14.051,0.406c137.525,0,249.436-109.355,253.706-245.843
	c0.084-2.685,0.204-5.362,0.204-8.067C1314.57,1124.754,1200.891,1011.075,1060.66,1011.075z M1060.66,1368.478
	c-11.541,0-59.111-53.371-59.111-119.207s46.878-119.207,59.111-119.207c10.415,0,59.111,53.371,59.111,119.207
	S1073.187,1368.478,1060.66,1368.478z M1197.223,1341.605c-27.288,27.289-69.128,29.693-73.912,24.91
	c-5.192-5.192-2.38-46.624,24.91-73.912c27.289-27.289,69.595-29.227,73.912-24.91
	C1227.203,1272.763,1224.512,1314.316,1197.223,1341.605z"/>
<path style="fill:#FBD2B6;" d="M1020.195,1445.995c-1.872-5.792-3.682-11.604-5.458-17.426c-2.252-7.381-15.27-50.642-7.915-26.477
	c-3.515-11.548-6.938-23.125-10.308-34.717l-0.024,0.007c-1.505,0.582-3.872,0.936-6.822,1.038l-1.082,0.045
	c-0.669,0.007-1.407-0.023-2.129-0.043c-0.581-0.015-1.138-0.02-1.753-0.054c-0.69-0.039-1.427-0.11-2.155-0.173
	c-0.724-0.062-1.435-0.118-2.195-0.205c-0.724-0.082-1.478-0.194-2.231-0.3c-0.832-0.117-1.66-0.235-2.523-0.381
	c-0.753-0.128-1.522-0.28-2.297-0.431c-0.922-0.179-1.845-0.367-2.796-0.581c-0.776-0.174-1.56-0.368-2.354-0.566
	c-0.99-0.248-1.984-0.51-2.995-0.796c-0.801-0.226-1.602-0.464-2.414-0.715c-1.036-0.319-2.074-0.661-3.125-1.021
	c-0.817-0.28-1.63-0.567-2.454-0.873c-1.07-0.397-2.14-0.826-3.217-1.267c-0.821-0.336-1.638-0.672-2.462-1.035
	c-1.093-0.482-2.183-1.005-3.276-1.535c-0.811-0.393-1.618-0.777-2.428-1.198c-1.112-0.578-2.215-1.207-3.32-1.838
	c-0.783-0.446-1.565-0.875-2.341-1.348c-1.141-0.696-2.261-1.455-3.386-2.21c-0.721-0.485-1.449-0.942-2.162-1.452
	c-1.218-0.872-2.403-1.821-3.59-2.769c-0.59-0.47-1.194-0.902-1.774-1.391c-1.748-1.474-3.458-3.027-5.111-4.679
	c-27.289-27.289-29.981-68.842-24.91-73.913c4.317-4.317,46.624-2.379,73.912,24.91c1.52,1.52,2.937,3.098,4.308,4.697l0.036,0.04
	c-20.719-82.425-35.5-166.157-46.934-250.375l-0.002,0.001c-1.6,0.957-3.174,1.955-4.751,2.946c-1.339,0.842-2.67,1.693-3.991,2.559
	c-1.561,1.022-3.123,2.043-4.659,3.098c-2.321,1.594-4.615,3.224-6.88,4.892c-1.476,1.087-2.924,2.209-4.375,3.328
	c-1.293,0.996-2.576,2.004-3.848,3.024c-1.408,1.129-2.819,2.254-4.203,3.411c-2.191,1.833-4.348,3.704-6.475,5.609
	c-1.301,1.166-2.576,2.361-3.854,3.554c-1.29,1.204-2.566,2.422-3.831,3.653c-1.206,1.173-2.418,2.339-3.6,3.536
	c-2.066,2.09-4.091,4.219-6.083,6.38c-1.106,1.199-2.186,2.422-3.269,3.642c-1.295,1.459-2.57,2.935-3.831,4.423
	c-0.986,1.164-1.983,2.319-2.948,3.501c-1.927,2.358-3.805,4.757-5.647,7.185c-0.898,1.183-1.772,2.384-2.65,3.583
	c-1.304,1.782-2.582,3.583-3.84,5.4c-0.745,1.078-1.507,2.144-2.236,3.233c-1.769,2.641-3.477,5.323-5.149,8.032
	c-0.701,1.135-1.38,2.283-2.063,3.43c-1.271,2.137-2.51,4.295-3.721,6.471c-0.526,0.947-1.071,1.884-1.584,2.838
	c-1.574,2.917-3.077,5.876-4.538,8.859c-0.525,1.073-1.033,2.156-1.544,3.237c-1.185,2.51-2.33,5.041-3.434,7.595
	c-0.336,0.777-0.69,1.544-1.019,2.325c-1.335,3.176-2.59,6.393-3.799,9.633c-0.379,1.016-0.744,2.039-1.11,3.061
	c-1.034,2.885-2.022,5.792-2.952,8.724c-0.185,0.58-0.386,1.153-0.566,1.736c-1.055,3.41-2.02,6.857-2.933,10.327
	c-0.256,0.975-0.502,1.954-0.748,2.934c-0.812,3.24-1.573,6.5-2.259,9.789l-0.248,1.128c-0.736,3.614-1.371,7.263-1.952,10.931
	c-0.15,0.943-0.291,1.888-0.43,2.834c-0.524,3.57-0.994,7.156-1.368,10.772l-0.064,0.545c-0.382,3.773-0.652,7.578-0.867,11.397
	c-0.053,0.945-0.1,1.892-0.143,2.839c-0.174,3.855-0.293,7.724-0.293,11.622c0,2.705,0.113,5.383,0.197,8.067
	c0.05,1.592,0.049,3.197,0.128,4.781c0.072,1.444,0.22,2.867,0.316,4.305c0.187,2.801,0.36,5.605,0.638,8.38
	c0.17,1.695,0.417,3.366,0.62,5.052c0.298,2.49,0.576,4.986,0.947,7.453c0.269,1.791,0.614,3.556,0.92,5.335
	c0.401,2.327,0.781,4.661,1.244,6.966c0.37,1.839,0.811,3.653,1.221,5.478c0.496,2.208,0.972,4.422,1.524,6.608
	c0.471,1.861,1.007,3.695,1.519,5.539c0.586,2.113,1.157,4.232,1.795,6.323c0.568,1.856,1.195,3.685,1.803,5.524
	c0.674,2.037,1.338,4.079,2.062,6.093c0.665,1.849,1.384,3.672,2.091,5.501c0.755,1.958,1.504,3.918,2.307,5.852
	c0.761,1.835,1.571,3.643,2.374,5.455c0.835,1.884,1.666,3.769,2.545,5.629c0.856,1.813,1.758,3.601,2.656,5.391
	c0.907,1.807,1.815,3.613,2.763,5.395c0.953,1.789,1.943,3.552,2.937,5.315c0.977,1.735,1.958,3.465,2.975,5.174
	c1.046,1.757,2.125,3.49,3.211,5.22c1.041,1.657,2.089,3.309,3.167,4.941c1.144,1.729,2.315,3.437,3.499,5.136
	c1.095,1.571,2.198,3.134,3.327,4.679c1.243,1.701,2.511,3.382,3.796,5.05c1.143,1.486,2.299,2.961,3.474,4.421
	c1.339,1.663,2.699,3.308,4.079,4.936c1.189,1.404,2.393,2.794,3.613,4.171c1.436,1.623,2.891,3.229,4.367,4.814
	c1.228,1.319,2.474,2.62,3.73,3.912c1.535,1.579,3.083,3.143,4.658,4.681c1.26,1.231,2.539,2.442,3.825,3.647
	c1.635,1.532,3.281,3.053,4.956,4.542c1.285,1.143,2.59,2.26,3.899,3.377c1.737,1.483,3.482,2.956,5.259,4.392
	c1.301,1.051,2.623,2.074,3.945,3.1c1.842,1.43,3.691,2.853,5.573,4.232c1.306,0.958,2.636,1.884,3.961,2.817
	c1.956,1.377,3.915,2.749,5.911,4.071c1.295,0.858,2.613,1.68,3.923,2.515c2.076,1.322,4.155,2.641,6.272,3.903
	c1.273,0.759,2.57,1.481,3.857,2.218c2.205,1.263,4.41,2.524,6.655,3.723c1.226,0.655,2.477,1.268,3.715,1.903
	c2.35,1.204,4.702,2.408,7.093,3.542c1.152,0.545,2.327,1.048,3.488,1.576c2.523,1.148,5.046,2.295,7.612,3.363
	c1.013,0.422,2.047,0.8,3.067,1.209c2.75,1.102,5.503,2.197,8.299,3.204c0.781,0.281,1.58,0.526,2.365,0.801
	c3.061,1.069,6.132,2.118,9.245,3.072l1.062,0.302c18.954,5.716,38.834,9.298,59.372,10.419
	C1037.006,1494.624,1028.107,1470.474,1020.195,1445.995z"/>
<ellipse style="fill:#B5B89E;" cx="1060.66" cy="1249.271" rx="59.111" ry="119.207"/>
<path style="fill:#B5B89E;" d="M1148.221,1292.602c-27.289,27.289-30.102,68.72-24.91,73.912c4.784,4.783,46.624,2.379,73.912-24.91
	c27.289-27.289,29.981-68.842,24.91-73.913C1217.816,1263.375,1175.509,1265.313,1148.221,1292.602z"/>
<path style="fill:#B5B89E;" d="M989.017,1341.182c2.449,8.745,4.962,17.472,7.497,26.192c0.648-0.253,1.172-0.536,1.496-0.86
	c4.901-4.9,2.645-42.07-20.565-69.175l-0.036-0.04C981.096,1311.967,984.935,1326.602,989.017,1341.182z"/>
<path style="fill:#989D7D;" d="M977.408,1297.299L977.408,1297.299c-1.371-1.599-2.788-3.177-4.308-4.697
	c-27.289-27.289-69.596-29.227-73.912-24.91c-5.071,5.07-2.38,46.624,24.91,73.913c1.653,1.652,3.363,3.205,5.111,4.679
	c0.58,0.489,1.184,0.921,1.774,1.391c1.187,0.948,2.372,1.897,3.59,2.769c0.712,0.51,1.441,0.967,2.162,1.452
	c1.125,0.755,2.245,1.515,3.386,2.21c0.775,0.473,1.56,0.902,2.341,1.348c1.105,0.631,2.208,1.26,3.32,1.838
	c0.809,0.42,1.619,0.805,2.428,1.198c1.093,0.53,2.183,1.053,3.276,1.535c0.822,0.363,1.642,0.699,2.462,1.035
	c1.077,0.442,2.148,0.87,3.217,1.267c0.822,0.305,1.639,0.593,2.454,0.873c1.051,0.36,2.089,0.702,3.125,1.021
	c0.81,0.25,1.615,0.49,2.414,0.715c1.011,0.285,2.005,0.548,2.995,0.796c0.791,0.198,1.579,0.393,2.354,0.566
	c0.951,0.214,1.874,0.402,2.796,0.581c0.772,0.151,1.547,0.303,2.297,0.431c0.864,0.146,1.692,0.264,2.523,0.381
	c0.75,0.106,1.509,0.218,2.231,0.3c0.759,0.087,1.471,0.143,2.195,0.205c0.725,0.062,1.467,0.135,2.155,0.173
	c0.615,0.034,1.172,0.039,1.753,0.054c0.72,0.02,1.463,0.05,2.129,0.043l1.082-0.045c2.944-0.103,5.318-0.457,6.822-1.038
	l0.024-0.007l0,0c-2.535-8.721-5.049-17.448-7.497-26.192C984.935,1326.602,981.096,1311.967,977.408,1297.299z"/>
</svg>
